<?xml version="1.0" encoding="utf-8"?>
<!-- Generator: Adobe Illustrator 15.1.0, SVG Export Plug-In . SVG Version: 6.00 Build 0)  -->
<!DOCTYPE svg PUBLIC "-//W3C//DTD SVG 1.1//EN" "http://www.w3.org/Graphics/SVG/1.1/DTD/svg11.dtd">
<svg version="1.1" id="レイヤー_1" xmlns="http://www.w3.org/2000/svg" xmlns:xlink="http://www.w3.org/1999/xlink" x="0px"
	 y="0px" width="100px" height="100px" viewBox="0 0 100 100" enable-background="new 0 0 100 100" xml:space="preserve">
<g id="_x30_">
	<path fill="#7A5F9F" d="M72.165,49.662c2.347,13.223-20.7,26.277-43.744,21.135c-1.67,0-2.242,2.242-3.956,1.846
		c-1.414-0.326-1.758-2.896-2.242-4.5C20.376,67.83,5.079,57.545,11.366,42.16c3.274,11.592,9.604,20.527,25.297,18.283
		c8.675-1.239,18.806-7.338,29.41-19.713"/>
	<path display="none" fill="#D04A8C" d="M13.459,60.398c-1.729-2.51,0.191-8.266,1.209-9.854l0.001,0.004
		c-1.385-2.513-2.449-5.361-3.304-8.388c-3.082,7.542-0.977,13.857,2.188,18.375"/>
</g>
<g id="_x31_">
	<path display="none" fill="#7A5F9F" d="M72.165,49.662c2.347,13.223-20.7,26.277-43.744,21.135c-1.67,0-2.242,2.242-3.956,1.846
		c-1.414-0.326-1.758-2.896-2.242-4.5C20.376,67.83,5.079,57.545,11.366,42.16c3.274,11.592,9.604,20.527,25.297,18.283
		c8.675-1.239,18.806-7.338,29.41-19.713"/>
	<path fill="#D04A8C" d="M13.459,60.398c-1.729-2.51,0.191-8.266,1.209-9.854l0.001,0.004c-1.385-2.513-2.449-5.361-3.304-8.388
		c-3.082,7.542-0.977,13.857,2.188,18.375"/>
</g>
<g id="_x32_">
	<path fill="none" stroke="#000000" stroke-linecap="round" stroke-linejoin="round" stroke-miterlimit="10" d="M72.165,49.662
		c2.347,13.223-20.7,26.277-43.744,21.135c-1.67,0-2.242,2.242-3.956,1.846c-1.414-0.326-1.758-2.896-2.242-4.5
		C20.376,67.83,5.079,57.545,11.366,42.16c3.274,11.592,9.604,20.527,25.297,18.283c8.675-1.239,18.806-7.338,29.41-19.713"/>
	<path fill="none" stroke="#000000" stroke-miterlimit="10" d="M14.669,50.544c-1.018,1.593-2.938,7.345-1.209,9.854"/>
</g>
<g id="_x33_">
	<path fill="#7A5F9F" d="M69.27,48.808c0.625,0.362-6.43-0.793-6.43,1.78c0,1.979,4.055,2.604,5.538,3.165"/>
	<path fill="#7A5F9F" d="M62.225,63.762c-0.164,2.338-1.494,4.381-3.148,4.381c-1.244,0.002-2.578-1.396-1.686-4.908
		c0.762-2.982,2.002-3.615,3.075-3.471C61.921,59.963,62.316,62.465,62.225,63.762z"/>
	<path fill="#7A5F9F" d="M90.05,40.816c-0.956,1.224-6.709,1.504-6.836,1.265c0.945-1.832,4.388-5.889,4.321-8.07l-0.1,0.022
		c-0.785,0.187-1.6,0.49-2.414,0.847c-0.068,0.03-0.14,0.056-0.203,0.087l0.537-0.409c0.229-0.474,0.271-0.583,0.43-0.95
		c0.104-0.247,0.203-0.509,0.295-0.782c0.037-0.109,0.068-0.228,0.104-0.341c0.053-0.169,0.107-0.336,0.155-0.514
		c0.039-0.143,0.073-0.295,0.11-0.442c0.037-0.156,0.078-0.31,0.113-0.47c0.037-0.163,0.065-0.332,0.103-0.499
		c0.03-0.155,0.063-0.307,0.092-0.464c0.031-0.173,0.058-0.35,0.086-0.525c0.025-0.157,0.054-0.312,0.075-0.471
		c0.025-0.181,0.049-0.363,0.072-0.546c0.02-0.157,0.041-0.313,0.059-0.472c0.021-0.184,0.039-0.369,0.059-0.554
		c0.019-0.158,0.031-0.315,0.045-0.473c0.02-0.188,0.029-0.375,0.043-0.562c0.015-0.151,0.022-0.303,0.031-0.454
		c0.004-0.05,0.006-0.099,0.008-0.149c-0.752-0.171-1.955,0.42-2.604,0.553c-0.361-0.846-4.861-5.319-5.787-5.758
		c0.135-0.967,1.201-6.262,0.092-7.297c-1.277-1.187-7.312,2.112-8.254,2.55c-1.285-1.187-5.57-1.869-6.432-2.022
		c-0.116-0.123,0.312-1.549-0.266-2.371c-0.09,0.042-0.178,0.077-0.269,0.12c-0.161,0.078-0.323,0.164-0.483,0.246
		c-0.308,0.157-0.61,0.32-0.92,0.496c-0.178,0.101-0.354,0.208-0.526,0.316c-0.292,0.177-0.583,0.364-0.873,0.56
		c-0.187,0.124-0.367,0.251-0.554,0.382c-0.278,0.204-0.562,0.418-0.842,0.64c-0.185,0.146-0.367,0.292-0.55,0.446
		c-0.276,0.234-0.551,0.484-0.823,0.738c-0.179,0.166-0.354,0.328-0.531,0.503c-0.273,0.274-0.547,0.569-0.814,0.866
		c-0.121,0.133-0.238,0.265-0.359,0.399l-0.01-0.007c-0.421,0.483-0.824,1.006-1.229,1.548c-0.048,0.061-0.097,0.12-0.144,0.184
		c-0.047,0.062-0.089,0.134-0.133,0.197c-0.115,0.163-0.234,0.316-0.352,0.485l0.021,0.008c-1.751-0.453-5.124,0.873-6.256,4.135
		l-0.201,0.266c-0.486,3.255-0.073,7.225,2.46,11.761l0.01-0.032c-0.026-0.147-0.069-0.293-0.096-0.441
		c-0.036-0.229-0.222-1.156-0.239-2.593c0.084-0.151,0.192-0.312,0.31-0.475c0.026-0.039,0.058-0.078,0.087-0.118
		c0.254-0.335,0.566-0.688,0.934-1.044c0.028-0.03,0.062-0.059,0.092-0.088c0.188-0.18,0.386-0.361,0.595-0.54l0,0
		c1.541-1.319,3.598-2.539,5.323-2.829c1.133,0.284,2.793,4.459,3.807,6.093v0.002c0.007,0.037,0.018,0.071,0.021,0.107
		c0.016,0.066,0.025,0.129,0.039,0.194c0.023,0.117,0.049,0.233,0.073,0.345c0.017,0.062,0.028,0.121,0.042,0.181
		c0.026,0.112,0.055,0.222,0.079,0.329c0.015,0.052,0.025,0.103,0.039,0.154c0.026,0.108,0.056,0.211,0.082,0.312
		c0.013,0.044,0.022,0.087,0.035,0.13c0.028,0.104,0.057,0.202,0.084,0.296c0.009,0.03,0.019,0.06,0.024,0.089
		c0.029,0.108,0.062,0.208,0.09,0.3c0.002,0.008,0.005,0.017,0.009,0.025c0.062,0.205,0.112,0.37,0.146,0.477l0.726,0.213
		c1.604-0.069,9.317-0.012,10.353,0.226c0.659,0.923,1.299,5.342,1.149,5.717l0.015-0.011c-2.24,2.425-3.726,4.677-3.736,5.799
		c0,0.147,0.018,0.281,0.064,0.387c0.462,0.967,3.549,0.909,7.85-0.529c3.584-1.202,8.799-4.48,11.688-7.769L90.05,40.816z
		 M72.941,27.276c-1.053,0.815-5.854,2.085-6.32,1.772c-0.215-0.144-0.133-4.413,0.6-6.362v-0.002
		c3.188-2.516,6.607-4.725,7.125-4.438C74.855,18.528,74.129,22.995,72.941,27.276z"/>
</g>
<g id="_x34_">
	<path fill="#D04A8C" d="M67.221,22.684v0.002c-0.732,1.95-0.812,6.219-0.6,6.362c0.467,0.313,5.27-0.958,6.32-1.772
		c1.188-4.281,1.914-8.748,1.404-9.03C73.828,17.959,70.408,20.168,67.221,22.684z"/>
	<path fill="#D04A8C" d="M54.593,19.672l-0.02-0.008c0.592-0.876,1.212-1.677,1.853-2.414l0.045,0.038
		c-1.06-3.196-3.17-4.076-5.32-0.779c-0.135,0.208-0.272,0.429-0.42,0.665c-0.021,0.039-0.047,0.083-0.068,0.123
		c-0.121,0.201-0.242,0.405-0.365,0.625c-0.034,0.06-0.067,0.127-0.101,0.188c-0.113,0.207-0.227,0.416-0.338,0.638
		c-0.045,0.09-0.088,0.189-0.133,0.283c-0.099,0.204-0.198,0.406-0.293,0.623c-0.05,0.114-0.096,0.237-0.145,0.354
		c-0.086,0.207-0.174,0.412-0.255,0.629c-0.05,0.134-0.093,0.277-0.141,0.414c-0.074,0.212-0.149,0.422-0.216,0.644
		c-0.046,0.152-0.084,0.315-0.127,0.471c-0.06,0.218-0.122,0.433-0.173,0.659c-0.039,0.169-0.067,0.349-0.102,0.522
		c-0.044,0.225-0.092,0.447-0.127,0.68c-0.002,0.015-0.003,0.032-0.005,0.047l0.201-0.266
		C49.469,20.544,52.842,19.219,54.593,19.672z"/>
	<path fill="#D04A8C" d="M87.038,19.695c-0.228-1.134-0.46-2.013-0.75-2.719l0.128,0.083c0.176-0.984,0.016-3.402-0.516-4.783
		c-1.123-2.917-7.006-4.844-8.324-4.778s-3.23,1.714-3.23,1.714l0.014,0.009c-2.555,0.047-6.396,0.469-10.375,2.323
		c0.578,0.823,0.146,2.248,0.265,2.372c0.854,0.154,5.146,0.835,6.431,2.022c0.943-0.438,6.977-3.737,8.254-2.55
		c1.11,1.036,0.043,6.33-0.091,7.297c0.925,0.439,5.425,4.912,5.787,5.758c0.649-0.132,1.854-0.724,2.604-0.553
		C87.383,23.316,87.286,20.929,87.038,19.695z"/>
	<path fill="#D04A8C" d="M67.221,22.684v0.002c-0.732,1.95-0.812,6.219-0.6,6.362c0.467,0.313,5.27-0.958,6.32-1.772
		c1.188-4.281,1.914-8.748,1.404-9.03C73.828,17.959,70.408,20.168,67.221,22.684z"/>
	<path fill="#D04A8C" d="M70.686,48.652c0-0.097,0.026-0.212,0.049-0.325c0,0.002,0,0.003,0,0.005c0-0.002,0-0.003,0-0.005
		c0.017-0.062,0.021-0.12,0.037-0.187v-0.001v0.001c0.056-0.187,0.131-0.393,0.23-0.613c0-0.001,0-0.002,0.001-0.003
		c-0.001,0.001-0.001,0.002-0.001,0.003c0.164-0.365,0.389-0.771,0.67-1.21c-0.002,0.002-0.004,0.004-0.005,0.007
		c0.001-0.002,0.003-0.004,0.005-0.007c0.172-0.269,0.36-0.547,0.57-0.838c-0.001,0.002-0.003,0.004-0.004,0.006
		c0.001-0.002,0.003-0.004,0.004-0.006c0.593-0.816,1.331-1.708,2.18-2.626l-0.015,0.011c0.147-0.375-0.49-4.794-1.149-5.717
		c-1.033-0.238-8.748-0.294-10.354-0.226l-0.725-0.213c-0.05-0.155-0.136-0.425-0.236-0.776c-0.002-0.009-0.004-0.017-0.008-0.026
		c-0.011-0.029-0.02-0.059-0.024-0.089c-0.002-0.007-0.004-0.014-0.007-0.021c-0.022-0.081-0.047-0.163-0.07-0.25
		c-0.002-0.009-0.004-0.016-0.007-0.025c-0.013-0.042-0.022-0.086-0.035-0.13c-0.002-0.006-0.003-0.012-0.005-0.018
		c-0.025-0.093-0.051-0.189-0.076-0.289c0-0.001-0.001-0.003-0.001-0.005c-0.013-0.051-0.024-0.102-0.039-0.154
		c-0.002-0.007-0.004-0.015-0.005-0.022c-0.023-0.098-0.049-0.198-0.072-0.3c-0.001-0.002-0.001-0.004-0.002-0.006
		c-0.014-0.06-0.027-0.119-0.042-0.181c-0.002-0.008-0.004-0.018-0.006-0.026c-0.021-0.093-0.041-0.189-0.062-0.286
		c-0.002-0.012-0.006-0.022-0.008-0.034c-0.004-0.026-0.014-0.052-0.019-0.077c-0.019-0.075-0.031-0.147-0.046-0.224v-0.002
		c-1.014-1.634-2.678-5.809-3.809-6.093c-0.646,0.109-1.342,0.348-2.037,0.675c-0.01,0.004-0.019,0.009-0.023,0.014
		c-1.148,0.543-2.309,1.323-3.262,2.141c-0.209,0.179-0.404,0.359-0.596,0.54c-0.025,0.028-0.059,0.056-0.088,0.084
		c-0.021,0.021-0.037,0.041-0.059,0.062c-0.335,0.333-0.629,0.661-0.868,0.975c-0.003,0.004-0.007,0.008-0.01,0.012
		c-0.028,0.04-0.06,0.078-0.086,0.117c-0.118,0.163-0.226,0.323-0.31,0.475c0.017,1.437,0.204,2.364,0.239,2.593
		c0.023,0.148,0.066,0.294,0.096,0.441c1.332,6.812,8.821,13.007,17.756,13.081c0.885,0.006,1.498-0.015,2.315-0.224L70.686,48.652
		C70.686,48.652,70.686,48.651,70.686,48.652L70.686,48.652z"/>
	<path fill="#D04A8C" d="M88.818,33.807c-0.418,0.036-0.853,0.114-1.284,0.213c0.058,2.183-3.376,6.232-4.32,8.062
		c0.127,0.239,5.88-0.042,6.836-1.265l0.229-0.072c0.923-1.048,1.613-2.098,1.936-3.081C92.975,35.338,92.643,33.477,88.818,33.807z
		"/>
</g>
<g id="_x35_">
	<path fill="#EBDBEB" d="M98.249,28.905c-0.61,0.062-6.177,4.638-7.715,4.863l0.047,0.069c1.733,0.274,2.134,1.365,1.897,2.776
		l0.062,0.095c0.033-0.198,6.562-6.438,6.562-6.792C99.107,29.5,98.566,28.873,98.249,28.905z"/>
	<path fill="#EBDBEB" d="M55.654,15.581h0.007c-0.272-0.731,1.467-7.512,1.246-7.776c-0.222-0.264-0.616-0.572-1.013-0.396
		c-0.396,0.176-3.877,7.991-3.877,7.991h0.002C53.398,13.97,54.702,14.202,55.654,15.581z"/>
	<path fill="#EBDBEB" d="M85.9,12.276c0.024,0.069,0.048,0.15,0.072,0.223l0.012,0.009c-0.363-1.417,3.229-9.461,3.229-10.648
		c0-0.527-1.318-1.483-2.176-1.022c-1.092,0.587-4.121,6.132-6.996,7.211l0.008,0.006C82.271,8.82,85.148,10.324,85.9,12.276z"/>
</g>
<g id="_x36_">
	<path fill="#9BCAED" d="M61.562,44.219c1.029-1.812,1.738-2.178,3.703-2.43c0.437-0.459,0.979-1.909,1.451-1.91
		c0.458-0.001,1.096,1.527,1.311,1.897c2.387,0.271,3.613,1.052,4.535,2.911C71.469,48.312,62.375,47.25,61.562,44.219z"/>
	<path fill="#9BCAED" d="M56.471,41.875c-3.138,0.625-7.18-5.125-5.658-9.583c2.238-0.023,3.711,1.028,4.639,2.449
		c0.438,0.192,1.917,0.134,2.091,0.551c0.158,0.38-0.729,1.375-1.069,1.81C57.02,39.158,56.865,41.235,56.471,41.875z"/>
	<path fill="#9BCAED" d="M58.293,44.297c-0.406,0-0.736,0.402-0.736,0.898c0,0.147,0.036,0.279,0.088,0.399
		c0.242,0.162,0.5,0.307,0.752,0.459c0.354-0.062,0.633-0.407,0.633-0.858C59.027,44.699,58.698,44.297,58.293,44.297z"/>
</g>
<g id="_x37_">
	<path fill="none" stroke="#000000" stroke-linecap="round" stroke-linejoin="round" stroke-miterlimit="10" d="M85.202,34.877"/>
	<path fill="none" stroke="#000000" stroke-linecap="round" stroke-linejoin="round" stroke-miterlimit="10" d="M85.355,34.559
		c0.23-0.474,0.271-0.583,0.43-0.95c1.648-3.89,1.766-11.361,1.253-13.913c-0.384-1.916-0.778-3.115-1.45-3.956
		c-0.878-1.099-5.824-6.528-10.704-6.528c-4.659,0-14.663,1.142-21.012,11.539c-4.791,7.846-3.461,13.964-3.36,14.61
		c1.086,6.984,8.723,13.446,17.852,13.522c0.883,0.006,1.498-0.015,2.314-0.224"/>
	<path fill="none" stroke="#000000" stroke-linecap="round" stroke-linejoin="round" stroke-miterlimit="10" d="M50.596,35.834
		C45.48,26.668,49,19.806,51.15,16.509c2.147-3.297,4.261-2.417,5.32,0.779"/>
	<path fill="none" stroke="#000000" stroke-linecap="round" stroke-linejoin="round" stroke-miterlimit="10" d="M62.225,63.762
		c-0.164,2.338-1.494,4.381-3.149,4.381c-1.244,0.002-2.578-1.396-1.685-4.908c0.762-2.983,2.002-3.616,3.075-3.471
		C61.921,59.963,62.316,62.465,62.225,63.762z"/>
	<path fill="none" stroke="#000000" stroke-linecap="round" stroke-linejoin="round" stroke-miterlimit="10" d="M54.593,19.672
		c-1.751-0.453-5.124,0.873-6.256,4.135"/>
	<path fill="none" stroke="#000000" stroke-linecap="round" stroke-linejoin="round" stroke-miterlimit="10" d="M52.018,15.4
		c0,0,3.481-7.815,3.877-7.991c0.396-0.176,0.791,0.132,1.014,0.396c0.221,0.264-1.52,7.045-1.246,7.776"/>
	<path fill="none" stroke="#000000" stroke-linecap="round" stroke-linejoin="round" stroke-miterlimit="10" d="M74.346,9.212
		c0,0,1.912-1.648,3.23-1.714s7.201,1.861,8.324,4.778c0.531,1.381,0.69,3.799,0.516,4.783"/>
	<path fill="none" stroke="#000000" stroke-linecap="round" stroke-linejoin="round" stroke-miterlimit="10" d="M84.385,35.152
		c1.528-0.735,3.037-1.226,4.434-1.345c3.824-0.33,4.156,1.531,3.396,3.857c-1.329,4.065-8.891,9.264-13.615,10.847
		c-4.301,1.438-7.388,1.496-7.85,0.529C69.855,47.171,77.34,38.543,84.385,35.152"/>
	<path fill="none" stroke="#000000" stroke-linecap="round" stroke-linejoin="round" stroke-miterlimit="10" d="M87.535,34.012
		c0.064,2.181-3.376,6.238-4.321,8.07c0.127,0.239,5.88-0.042,6.836-1.265"/>
	<path fill="none" stroke="#000000" stroke-linecap="round" stroke-linejoin="round" stroke-miterlimit="10" d="M90.534,33.768
		c1.538-0.225,7.104-4.801,7.715-4.863c0.317-0.032,0.858,0.595,0.856,1.012c-0.002,0.354-6.529,6.594-6.562,6.792"/>
	<path fill="none" stroke="#000000" stroke-linecap="round" stroke-linejoin="round" stroke-miterlimit="10" d="M69.27,48.808
		c0.625,0.362-6.43-0.793-6.43,1.78c0,1.979,4.055,2.604,5.538,3.165"/>
	<path fill="none" stroke="#000000" stroke-linecap="round" stroke-linejoin="round" stroke-miterlimit="10" d="M80.042,8.049
		c2.875-1.079,5.905-6.624,6.996-7.211c0.856-0.461,2.176,0.495,2.176,1.022c0,1.187-3.593,9.231-3.229,10.648"/>
	<path fill="none" stroke="#000000" stroke-linecap="round" stroke-linejoin="round" stroke-miterlimit="10" d="M62.182,36.708
		c1.979,0.213,6.026-1.049,7.127-1.561c2.619-1.221,5.993-16.374,5.037-16.901c-0.955-0.528-11.826,7.461-12.824,10.176
		C60.422,31.411,61.917,35.834,62.182,36.708z"/>
	<path fill="none" stroke="#000000" stroke-linecap="round" stroke-linejoin="round" stroke-miterlimit="10" d="M50.269,32.773
		c1.01-1.825,4.592-4.637,7.34-5.099c1.132,0.284,2.795,4.459,3.806,6.093"/>
	<path fill="none" stroke="#000000" stroke-linecap="round" stroke-linejoin="round" stroke-miterlimit="10" d="M62.904,36.921
		c1.604-0.069,9.32-0.012,10.354,0.226c0.659,0.923,1.297,5.342,1.149,5.717"/>
	<path fill="none" stroke="#000000" stroke-linecap="round" stroke-linejoin="round" stroke-miterlimit="10" d="M67.221,22.686
		c-0.732,1.95-0.812,6.219-0.6,6.362c0.467,0.313,5.27-0.958,6.318-1.772"/>
	<path fill="none" stroke="#000000" stroke-linecap="round" stroke-linejoin="round" stroke-miterlimit="10" d="M73.674,25.101
		c4.609,3.258,8.023,7.626,8.846,11.063"/>
	<path fill="none" stroke="#000000" stroke-linecap="round" stroke-linejoin="round" stroke-miterlimit="10" d="M73.674,25.101"/>
	<path fill="none" stroke="#000000" stroke-linecap="round" stroke-linejoin="round" stroke-miterlimit="10" d="M52.941,22.396
		c4.884-2.711,10.27-2.328,15.1-0.389"/>
	<path fill="none" stroke="#000000" stroke-linecap="round" stroke-linejoin="round" stroke-miterlimit="10" d="M64.15,11.84
		c0.66,0.808-0.023,1.949,0.097,2.076c0.856,0.154,5.144,0.835,6.43,2.022c0.944-0.438,6.976-3.737,8.253-2.55
		c1.112,1.036,0.043,6.33-0.089,7.297c0.923,0.439,5.423,4.912,5.787,5.758c0.653-0.132,1.856-0.726,2.61-0.552"/>
	<path fill="none" stroke="#000000" stroke-linecap="round" stroke-linejoin="round" stroke-miterlimit="10" d="M62.182,36.708
		c1.979,0.213,6.026-1.049,7.127-1.561c2.619-1.221,5.993-16.374,5.037-16.901c-0.955-0.528-11.826,7.461-12.824,10.176
		C60.422,31.411,61.917,35.834,62.182,36.708z"/>
	<path fill="none" stroke="#000000" stroke-linecap="round" stroke-linejoin="round" stroke-miterlimit="10" d="M67.221,22.686
		c-0.732,1.95-0.812,6.219-0.6,6.362c0.467,0.313,5.27-0.958,6.318-1.772"/>
	<path fill="none" stroke="#000000" stroke-linecap="round" stroke-linejoin="round" stroke-miterlimit="10" d="M61.562,44.219
		c1.028-1.812,1.737-2.178,3.703-2.43c0.437-0.459,0.979-1.909,1.45-1.91c0.458-0.001,1.097,1.527,1.312,1.897
		c2.387,0.271,3.613,1.052,4.535,2.911C71.469,48.312,62.375,47.25,61.562,44.219z"/>
	<path fill="none" stroke="#000000" stroke-linecap="round" stroke-linejoin="round" stroke-miterlimit="10" d="M56.471,41.875
		c-3.138,0.625-7.18-5.125-5.658-9.583c2.238-0.023,3.711,1.028,4.64,2.449c0.438,0.192,1.917,0.134,2.091,0.551
		c0.158,0.38-0.729,1.375-1.068,1.81C57.02,39.158,56.865,41.235,56.471,41.875z"/>
	<path fill="none" stroke="#000000" stroke-linecap="round" stroke-linejoin="round" stroke-miterlimit="10" d="M58.293,44.297
		c-0.406,0-0.736,0.402-0.736,0.898c0,0.147,0.036,0.279,0.088,0.399c0.242,0.162,0.5,0.307,0.752,0.459
		c0.354-0.062,0.633-0.407,0.633-0.858C59.027,44.699,58.698,44.297,58.293,44.297z"/>
</g>
</svg>
