<?xml version="1.0" encoding="utf-8"?>
<!-- Generator: Adobe Illustrator 15.1.0, SVG Export Plug-In . SVG Version: 6.00 Build 0)  -->
<!DOCTYPE svg PUBLIC "-//W3C//DTD SVG 1.1//EN" "http://www.w3.org/Graphics/SVG/1.1/DTD/svg11.dtd">
<svg version="1.1" id="レイヤー_1" xmlns="http://www.w3.org/2000/svg" xmlns:xlink="http://www.w3.org/1999/xlink" x="0px"
	 y="0px" width="100px" height="100px" viewBox="0 0 100 100" enable-background="new 0 0 100 100" xml:space="preserve">
<g id="_x30_">
	<path id="body" fill="#F95E4E" d="M95.732,32.041l-11.006-1.599l-6.465-0.94c-4.238-5.811-10.234-10.251-17.207-12.547
		L53.279,1.199c-1.803-3.654-4.754-3.654-6.557,0l-7.851,15.909c-6.756,2.329-12.568,6.678-16.711,12.333l-6.885,1l-11.007,1.6
		c-4.028,0.588-4.938,3.394-2.021,6.235l7.96,7.759l5.281,5.148c0.241,6.865,2.473,13.227,6.141,18.518l-1.29,7.521L18.46,88.177
		c-0.689,4.019,1.698,5.753,5.305,3.855l9.838-5.173l6.821-3.586c3.099,0.906,6.373,1.399,9.764,1.399
		c3.302,0,6.494-0.471,9.519-1.33l6.688,3.517l9.838,5.173c3.605,1.896,5.996,0.161,5.308-3.855l-1.88-10.954l-1.217-7.093
		c3.916-5.473,6.279-12.125,6.455-19.323l4.896-4.771l7.96-7.759C100.67,35.433,99.76,32.627,95.732,32.041z"/>
</g>
<g id="_x31_">
	<path fill="#F7CBDF" d="M38.217,37.803c-8.577-3.846-19.482-0.335-22.493,8.569C9.707,64.164,29.229,75.08,40.578,65.973
		c-7.88,0.07-17.939-0.744-17.133-11.611c0.422,4.572,3.958,6.507,6.373,7.379c5.657,2.043,12.791-0.454,15.254-5.943
		C48.148,48.933,45.076,40.878,38.217,37.803z"/>
	<path fill="#F7CBDF" d="M53.619,55.141c2.515,9.059,12.177,15.213,20.953,11.846c17.535-6.726,13.479-28.72-0.776-31.644
		c5.085,6.021,10.879,14.284,1.998,20.601c3.251-3.243,2.481-7.2,1.613-9.614c-2.039-5.66-8.515-9.557-14.312-7.949
		C55.85,40.391,51.609,47.897,53.619,55.141z"/>
</g>
<g id="_x32_">
	<circle fill="#FFFFFF" cx="65.234" cy="50.166" r="10.083"/>
	<circle fill="#FFFFFF" cx="34.734" cy="50.166" r="10.083"/>
</g>
<g id="_x33_">
	<path fill="#FFFFFF" d="M55.768,62.046c0,0.724-0.565,1.159-1.309,1.31c0,0-2.045,0.517-4.452,0.517
		c-2.422,0-4.466-0.517-4.466-0.517c-0.793-0.1-1.309-0.586-1.309-1.31l0,0c0-0.723,0.586-1.31,1.309-1.31
		c0,0,3.458,0.516,4.451,0.519c0.992,0.004,4.466-0.519,4.466-0.519C55.182,60.736,55.768,61.323,55.768,62.046L55.768,62.046z"/>
</g>
<g id="_x34_">
	<g>
		<path fill="#F8F199" d="M45.501,71.376c0.832-0.72,1.682-0.426,1.89,0.653l0.944,4.9c0.208,1.08-0.472,1.67-1.512,1.311
			l-4.714-1.633c-1.04-0.359-1.21-1.244-0.378-1.965L45.501,71.376z"/>
	</g>
	<g>
		<path fill="#F8F199" d="M32.27,28.886c-1.013-0.429-1.124-1.321-0.246-1.984l4.244-3.203c0.878-0.663,1.706-0.312,1.841,0.78
			l0.649,5.271c0.135,1.092-0.584,1.634-1.597,1.206L32.27,28.886z"/>
	</g>
	<g>
		<path fill="#F8F199" d="M57.908,28.642c0.152-1.089,0.986-1.426,1.854-0.75l4.037,3.154c0.867,0.677,0.742,1.568-0.277,1.98
			l-4.75,1.919c-1.021,0.412-1.729-0.142-1.576-1.231L57.908,28.642z"/>
	</g>
</g>
<g id="_x35_">
	<g>
		<path fill="#F8F199" d="M43.194,58.086c1.084,0.188,1.395,1.031,0.691,1.877l-3.29,3.95c-0.704,0.846-1.591,0.692-1.971-0.34
			l-1.777-4.825c-0.38-1.032,0.196-1.725,1.28-1.537L43.194,58.086z"/>
	</g>
	<g>
		<path fill="#F8F199" d="M33.003,35.843c-1.098-0.071-1.497-0.877-0.886-1.792l3.034-4.549c0.61-0.916,1.508-0.857,1.996,0.129
			l2.419,4.898c0.487,0.986-0.012,1.736-1.11,1.665L33.003,35.843z"/>
	</g>
	<g>
		<path fill="#F8F199" d="M61.805,46.845c1.041-0.357,1.723,0.234,1.516,1.314l-0.948,4.957c-0.207,1.079-1.06,1.377-1.894,0.659
			l-3.867-3.322c-0.834-0.717-0.666-1.596,0.375-1.953L61.805,46.845z"/>
	</g>
</g>
</svg>
